<svg width="155" height="144" viewBox="0 0 155 144" version="1.1" xmlns="http://www.w3.org/2000/svg" xmlns:xlink="http://www.w3.org/1999/xlink">
<title>Group 2</title>
<desc>Created using Figma</desc>
<g id="Canvas" transform="translate(536 -954)">
<g id="Group 2">
<g id="no paint">
<g id="Layer 2">
<g id="Layer 1">
<g id="Vector">
<use xlink:href="#path0_fill" transform="matrix(-1 0 0 1 -395.091 980.452)" fill="#7C7A72"/>
</g>
<g id="Vector">
<use xlink:href="#path1_fill" transform="matrix(-1 0 0 1 -395.091 983.2)" fill="#56544C"/>
</g>
<g id="Vector">
<use xlink:href="#path2_fill" transform="matrix(-1 0 0 1 -519.76 980.452)" fill="#D6D4CC"/>
</g>
<g id="Vector">
<use xlink:href="#path3_fill" transform="matrix(-1 0 0 1 -519.76 980.445)" fill="#BFBDB2"/>
</g>
<g id="Vector">
<use xlink:href="#path4_fill" transform="matrix(-1 0 0 1 -407.821 962.489)" fill="#CCCCCC"/>
</g>
<g id="Vector">
<use xlink:href="#path5_fill" transform="matrix(-1 0 0 1 -407.821 979.631)" fill="#BFBDB2"/>
</g>
<g id="Vector">
<use xlink:href="#path6_fill" transform="matrix(-1 0 0 1 -465.64 1011.49)" fill="#F35856"/>
</g>
<g id="Vector">
<use xlink:href="#path7_fill" transform="matrix(-1 0 0 1 -465.64 1011.49)" fill="#EF4438"/>
</g>
<g id="Vector">
<use xlink:href="#path8_fill" transform="matrix(-1 0 0 1 -424.585 962.489)" fill="#989898"/>
</g>
<g id="Vector" opacity="0.1">
<use xlink:href="#path9_fill" transform="matrix(-1 0 0 1 -424.585 962.489)" fill="#010101"/>
</g>
<g id="Vector">
<use xlink:href="#path10_fill" transform="matrix(-1 0 0 1 -436.96 960.527)" fill="#353535"/>
</g>
<g id="Vector">
<use xlink:href="#path11_fill" transform="matrix(-1 0 0 1 -447.832 960.527)" fill="#353535"/>
</g>
<g id="Vector">
<use xlink:href="#path12_fill" transform="matrix(-1 0 0 1 -458.701 960.527)" fill="#353535"/>
</g>
<g id="Group" opacity="0.2">
<g id="Vector" opacity="0.2">
<use xlink:href="#path13_fill" transform="matrix(-1 0 0 1 -424.928 964.45)" fill="#FFFFFF"/>
</g>
</g>
<g id="Vector">
<use xlink:href="#path14_fill" transform="matrix(-1 0 0 1 -389.25 954)" fill="#303C42"/>
</g>
</g>
</g>
</g>
<g id="001-checked">
<g id="Group">
<g id="Vector">
<use xlink:href="#path15_fill" transform="translate(-447.856 1026.83)" fill="#3DB39E"/>
</g>
</g>
</g>
</g>
</g>
<defs>
<path id="path0_fill" d="M 0.266247 6.39306L 3.42845 10.6494C 3.55393 10.8178 3.71693 10.9546 3.90449 11.0489C 4.09205 11.1431 4.29899 11.1922 4.50882 11.1922L 12.7402 11.1922L 12.7402 2.45602e-06L 4.50882 2.45602e-06C 4.29928 -0.000397848 4.09253 0.0481417 3.90499 0.141765C 3.71745 0.235388 3.55429 0.371516 3.42845 0.539342L 0.266247 4.78191C 0.0933626 5.0148 -8.5447e-08 5.29728 -8.5447e-08 5.58749C -8.5447e-08 5.8777 0.0933626 6.16018 0.266247 6.39306Z"/>
<path id="path1_fill" d="M 12.7264 2.74823L 12.7264 8.41988L 4.4951 8.41988C 4.28959 8.42058 4.08664 8.37421 3.90177 8.2843C 3.7169 8.1944 3.555 8.06334 3.42845 7.90115L 0.266247 3.64483C 0.0933626 3.41195 -8.5447e-08 3.12947 -8.5447e-08 2.83926C -8.5447e-08 2.54905 0.0933626 2.26657 0.266247 2.03369L 1.77533 0L 3.83316 2.74823L 12.7504 2.74823L 12.7264 2.74823Z"/>
<path id="path2_fill" d="M 6.88688 11.1818L 0 11.1818L 0 4.88183e-15L 6.88688 4.88183e-15C 7.45176 0 7.9935 0.22476 8.39293 0.624833C 8.79235 1.02491 9.01675 1.56752 9.01675 2.13331L 9.01675 9.05197C 9.01584 9.61716 8.79104 10.1589 8.39171 10.5582C 7.99238 10.9576 7.45116 11.1818 6.88688 11.1818Z"/>
<path id="path3_fill" d="M 4.51009 0L 0 0L 0 11.1887L 4.51009 11.1887L 4.51009 0Z"/>
<path id="path4_fill" d="M -3.66334e-07 17.9562L -3.66334e-07 23.5523L -3.66334e-07 29.1449L 16.7782 47.1012L 16.7782 23.5523L 16.7782 -3.14509e-07L -3.66334e-07 17.9562Z"/>
<path id="path5_fill" d="M 16.7782 17.1455L 16.7782 29.9591L -3.66334e-07 12.0029L -3.66334e-07 0.814163L 0.75797 2.09673e-07L 16.7782 17.1455Z"/>
<path id="path6_fill" d="M 15.7451 2.09673e-06C 15.7451 2.09673e-06 7.64062 12.5044 0.407326 19.509C 0.274206 19.6386 0.169327 19.7944 0.099302 19.9666C 0.0292766 20.1388 -0.00437856 20.3237 0.000454501 20.5096C 0.00528756 20.6955 0.0485045 20.8784 0.127384 21.0467C 0.206264 21.215 0.319095 21.3652 0.45877 21.4877C 2.93503 23.6691 9.57841 28.4716 19.0067 27.283C 19.0033 27.283 21.7951 15.1771 15.7451 2.09673e-06Z"/>
<path id="path7_fill" d="M 19.3943 25.531C 19.1885 26.6612 19.0067 27.2796 19.0067 27.2796C 9.57841 28.4716 2.93503 23.6657 0.45877 21.4843C 0.319095 21.3617 0.206264 21.2116 0.127384 21.0433C 0.0485045 20.8749 0.00528756 20.6921 0.000454501 20.5062C -0.00437856 20.3203 0.0292766 20.1354 0.099302 19.9632C 0.169327 19.791 0.274206 19.6351 0.407326 19.5055C 7.64405 12.5044 15.7451 2.09673e-07 15.7451 2.09673e-07C 17.0797 2.9752 18.1137 6.07667 18.8318 9.25808C 16.3178 12.525 13.4369 15.9912 10.6828 18.657C 10.5495 18.7861 10.4445 18.9414 10.3742 19.1132C 10.3039 19.2851 10.2699 19.4696 10.2745 19.6552C 10.279 19.8408 10.3219 20.0235 10.4004 20.1917C 10.4789 20.3598 10.5914 20.5099 10.7308 20.6323C 13.2577 22.836 16.2051 24.5026 19.3943 25.531Z"/>
<path id="path8_fill" d="M 0 -3.14509e-07L 48.733 -3.14509e-07C 49.0893 0.00181583 49.4303 0.144856 49.6816 0.397846C 49.9329 0.650836 50.074 0.993193 50.074 1.35007L 50.074 4.35937C 50.0785 6.17858 50.8032 7.92173 52.0891 9.20649C 53.375 10.4913 55.1172 11.2128 56.9334 11.2128C 58.745 11.2055 60.4801 10.4808 61.76 9.19682C 63.04 7.91283 63.761 6.17383 63.7655 4.35937L 63.7655 1.35007C 63.7655 1.17277 63.8003 0.997216 63.8681 0.833418C 63.9358 0.669621 64.0351 0.52079 64.1602 0.395425C 64.2854 0.27006 64.434 0.170615 64.5975 0.102768C 64.7611 0.0349205 64.9363 -3.14509e-07 65.1133 -3.14509e-07L 82.7867 -3.14509e-07C 86.0723 -3.14509e-07 89.2232 1.30729 91.5465 3.63429C 93.8697 5.96128 95.1749 9.11737 95.1749 12.4082L 95.1749 34.6929C 95.1749 42.4498 90.6614 45.4076 86.7035 46.5103C 86.0205 46.707 85.3858 47.044 84.8399 47.4998C 84.294 47.9556 83.8488 48.5202 83.5327 49.1578C 83.2165 49.7953 83.0363 50.4918 83.0036 51.2029C 82.9708 51.914 83.0862 52.6241 83.3423 53.2881C 85.0572 57.802 86.58 62.3881 88.0136 66.9846C 89.9343 73.144 91.6217 79.3859 92.9284 85.7034C 93.6144 89.1009 94.2249 92.519 94.6639 95.9612C 95.5727 103.117 97.1436 110.3 93.6041 117.215C 88.6173 126.965 76.8636 127.768 67.2295 128.208C 60.3906 128.528 47.68 129.057 46.5379 119.754C 45.8108 113.78 49.0759 107.387 51.8746 102.389C 54.9145 97.0041 57.1668 91.2103 58.5626 85.1847C 60.737 75.5968 61.9923 61.9862 56.7928 48.9906C 56.5708 48.4311 56.1864 47.9511 55.6894 47.6125C 55.1924 47.2739 54.6055 47.0922 54.0045 47.0908L 0 47.0908L 0 -3.14509e-07Z"/>
<path id="path9_fill" d="M 78.3487 127.14C 74.6548 127.827 70.8033 128.054 67.2364 128.218C 60.3975 128.538 47.6869 129.067 46.5448 119.764C 45.8177 113.79 49.0828 107.397 51.8815 102.399C 54.9203 97.0152 57.1726 91.2227 58.5694 85.1984C 60.7439 75.6105 61.9992 62 56.7997 49.0043C 56.5774 48.4443 56.1926 47.9639 55.6949 47.6253C 55.1972 47.2866 54.6096 47.1052 54.0079 47.1046L 0 47.1046L 0 -3.14509e-07L 9.94621 -3.14509e-07L 9.94621 36.1048C 9.94621 37.2892 10.416 38.4251 11.2521 39.2627C 12.0883 40.1002 13.2223 40.5707 14.4048 40.5707L 67.4936 40.5707C 68.1337 40.5725 68.7587 40.7661 69.288 41.1267C 69.8174 41.4873 70.2268 41.9984 70.4637 42.5941C 76.0096 56.4382 74.6686 70.9523 72.3672 81.1723C 70.8798 87.5927 68.4796 93.7659 65.2402 99.5029C 62.2564 104.845 58.7786 111.643 59.5503 118.005C 60.5827 126.587 70.8753 127.318 78.3487 127.14Z"/>
<path id="path10_fill" d="M 1.95837 12.9544C 1.43898 12.9544 0.940863 12.7478 0.573596 12.3799C 0.20633 12.0121 6.28002e-07 11.5131 6.28002e-07 10.9929L 6.28002e-07 1.96155C 6.28002e-07 1.44131 0.20633 0.942385 0.573596 0.574524C 0.940863 0.206662 1.43898 -2.44091e-15 1.95837 -2.44091e-15C 2.47776 -3.66137e-15 2.97588 0.206662 3.34315 0.574524C 3.71042 0.942385 3.91675 1.44131 3.91675 1.96155L 3.91675 10.9929C 3.91675 11.5131 3.71042 12.0121 3.34315 12.3799C 2.97588 12.7478 2.47776 12.9544 1.95837 12.9544Z"/>
<path id="path11_fill" d="M 1.95838 12.9544C 1.43898 12.9544 0.940862 12.7478 0.573595 12.3799C 0.206329 12.0121 -4.18668e-07 11.5131 -4.18668e-07 10.9929L -4.18668e-07 1.96155C -4.18668e-07 1.44131 0.206329 0.942385 0.573595 0.574524C 0.940862 0.206662 1.43898 -2.44091e-15 1.95838 -2.44091e-15C 2.47777 -3.66137e-15 2.97588 0.206662 3.34315 0.574524C 3.71042 0.942385 3.91675 1.44131 3.91675 1.96155L 3.91675 10.9929C 3.91675 11.5131 3.71042 12.0121 3.34315 12.3799C 2.97588 12.7478 2.47777 12.9544 1.95838 12.9544Z"/>
<path id="path12_fill" d="M 1.95837 12.9544C 1.43898 12.9544 0.940862 12.7478 0.573596 12.3799C 0.20633 12.0121 4.18668e-07 11.5131 4.18668e-07 10.9929L 4.18668e-07 1.96155C 4.18668e-07 1.44131 0.20633 0.942385 0.573596 0.574524C 0.940862 0.206662 1.43898 -2.44091e-15 1.95837 -2.44091e-15C 2.47776 -3.66137e-15 2.97588 0.206662 3.34315 0.574524C 3.71042 0.942385 3.91675 1.44131 3.91675 1.96155L 3.91675 10.9929C 3.91675 11.5131 3.71042 12.0121 3.34315 12.3799C 2.97588 12.7478 2.47776 12.9544 1.95837 12.9544Z"/>
<path id="path13_fill" d="M 50.074 7.0183L 50.074 10.0276C 50.074 11.8452 50.7949 13.5884 52.0781 14.8737C 53.3612 16.1589 55.1016 16.881 56.9163 16.881C 58.731 16.881 60.4714 16.1589 61.7545 14.8737C 63.0377 13.5884 63.7586 11.8452 63.7586 10.0276L 63.7586 7.0183C 63.7586 6.66024 63.9006 6.31685 64.1534 6.06366C 64.4062 5.81047 64.749 5.66823 65.1065 5.66823L 82.7799 5.66823C 86.0601 5.67278 89.2046 6.98019 91.5237 9.30373C 93.8428 11.6273 95.1472 14.7772 95.1509 18.0627L 95.1509 12.4083C 95.1509 9.11739 93.8457 5.9613 91.5225 3.63431C 89.1992 1.30731 86.0483 1.75102e-05 82.7627 1.75102e-05L 65.0893 1.75102e-05C 64.7319 1.75102e-05 64.389 0.142256 64.1362 0.395442C 63.8835 0.648629 63.7415 0.992023 63.7415 1.35008L 63.7415 4.35939C 63.7415 6.17702 63.0206 7.92021 61.7374 9.20547C 60.4542 10.4907 58.7138 11.2128 56.8991 11.2128C 55.0845 11.2128 53.3441 10.4907 52.0609 9.20547C 50.7777 7.92021 50.0568 6.17702 50.0568 4.35939L 50.0568 1.35008C 50.0569 1.17221 50.0218 0.99609 49.9536 0.831843C 49.8854 0.667596 49.7855 0.51846 49.6596 0.393005C 49.5338 0.26755 49.3843 0.168248 49.22 0.100807C 49.0557 0.0333649 48.8797 -0.000887695 48.7021 1.75102e-05L 0 1.75102e-05L 0 5.66823L 48.7021 5.66823C 48.8811 5.66504 49.059 5.6976 49.2253 5.76402C 49.3916 5.83043 49.543 5.92937 49.6708 6.05505C 49.7985 6.18074 49.8999 6.33065 49.9691 6.49604C 50.0384 6.66142 50.074 6.83896 50.074 7.0183Z"/>
<path id="path14_fill" d="M 72.0917 6.52707C 72.6111 6.52707 73.1092 6.73373 73.4765 7.10159C 73.8438 7.46946 74.0501 7.96838 74.0501 8.48862L 84.7508 8.48862C 85.1077 8.48953 85.4497 8.63217 85.7017 8.88525C 85.9538 9.13834 86.0953 9.48122 86.0953 9.83868L 86.0953 12.848C 86.0953 13.748 86.2723 14.6392 86.6161 15.4707C 86.96 16.3022 87.464 17.0577 88.0994 17.6941C 88.7347 18.3305 89.489 18.8353 90.3192 19.1797C 91.1493 19.5241 92.0391 19.7014 92.9376 19.7014C 93.8361 19.7014 94.7259 19.5241 95.556 19.1797C 96.3862 18.8353 97.1405 18.3305 97.7758 17.6941C 98.4112 17.0577 98.9152 16.3022 99.2591 15.4707C 99.6029 14.6392 99.7799 13.748 99.7799 12.848L 99.7799 9.83868C 99.7799 9.48062 99.9219 9.13723 100.175 8.88404C 100.427 8.63086 100.77 8.48862 101.128 8.48862L 118.801 8.48862C 122.087 8.48862 125.238 9.79591 127.561 12.1229C 129.884 14.4499 131.189 17.606 131.189 20.8969L 131.189 26.4517L 138.076 26.4517C 138.641 26.4517 139.183 26.6765 139.582 27.0765C 139.982 27.4766 140.206 28.0192 140.206 28.585L 140.206 35.5037C 140.206 36.0695 139.982 36.6121 139.582 37.0122C 139.183 37.4122 138.641 37.637 138.076 37.637L 131.193 37.637L 131.193 43.1815C 131.193 50.9384 126.679 53.8962 122.721 54.9989C 122.039 55.196 121.404 55.5333 120.859 55.9892C 120.313 56.4452 119.869 57.0099 119.553 57.6474C 119.237 58.2849 119.057 58.9812 119.024 59.6921C 118.992 60.403 119.107 61.1129 119.364 61.7767C 121.078 66.2907 122.601 70.8768 124.035 75.4732C 125.956 81.6326 127.643 87.8745 128.95 94.192C 129.636 97.5895 130.246 101.008 130.685 104.45C 131.594 111.605 133.165 118.789 129.625 125.704C 126.484 131.846 120.653 134.436 114.36 135.625L 114.277 135.625C 113.893 135.696 113.507 135.762 113.118 135.824L 112.847 135.869C 112.438 135.931 112.029 135.989 111.619 136.044L 111.362 136.075L 110.391 136.188L 109.952 136.236L 108.951 136.333L 108.323 136.384L 107.679 136.436L 107.02 136.484L 106.619 136.511L 105.141 136.597L 105.048 136.597L 103.244 136.724C 101.872 136.79 100.27 136.862 98.5658 136.862C 91.7749 136.862 83.475 135.711 82.5524 128.273C 81.8664 122.705 84.6651 116.782 87.3163 111.942C 87.5083 111.592 87.6993 111.248 87.889 110.912C 89.0219 108.89 90.0521 106.812 90.9758 104.687C 91.6915 103.036 92.3363 101.356 92.9102 99.6473C 92.9513 99.527 92.9925 99.4034 93.0336 99.2831L 93.0336 99.2522C 93.6327 97.4201 94.146 95.5719 94.5736 93.7076C 95.0194 91.7358 95.4276 89.5853 95.75 87.3249C 95.8666 86.4936 95.9763 85.6485 96.0655 84.7862C 95.0894 84.9096 94.1066 84.9716 93.1228 84.9717C 85.2584 84.9717 79.7263 80.9353 77.5175 78.9909C 77.3769 78.8687 77.2631 78.7184 77.1836 78.5498C 77.1041 78.3811 77.0606 78.1977 77.0557 78.0112C 77.0509 77.8247 77.0849 77.6393 77.1555 77.4667C 77.2262 77.2941 77.3319 77.1381 77.4661 77.0088C 79.2677 75.2347 80.9746 73.3668 82.5798 71.4127C 86.2257 66.9564 89.6383 62.3137 92.8038 57.5032C 92.5812 56.9444 92.1967 56.4651 91.6997 56.1272C 91.2028 55.7892 90.6161 55.608 90.0155 55.6069L 36.0213 55.6069L 19.2534 37.6335L 11.022 37.6335C 10.8154 37.6326 10.6117 37.5841 10.4267 37.4918C 10.2418 37.3995 10.0805 37.2658 9.95537 37.1011L 6.78973 32.8448C 6.63942 32.6445 6.54816 32.4061 6.52634 32.1565C 6.50451 31.9069 6.55299 31.6562 6.66626 31.4329C 6.69998 31.3668 6.73898 31.3036 6.78288 31.2439L 7.31448 30.5294L 8.29881 29.1999L 9.95537 26.991C 10.0802 26.8246 10.2417 26.6893 10.4273 26.5958C 10.6129 26.5022 10.8176 26.4529 11.0254 26.4517L 19.2568 26.4517L 20.0182 25.6375L 36.0213 8.48862L 48.3683 8.48862C 48.3683 8.23102 48.419 7.97595 48.5174 7.73797C 48.6158 7.49998 48.76 7.28374 48.9419 7.10159C 49.1237 6.91945 49.3396 6.77496 49.5772 6.67638C 49.8148 6.57781 50.0695 6.52707 50.3267 6.52707C 50.5839 6.52707 50.8385 6.57781 51.0761 6.67638C 51.3137 6.77496 51.5296 6.91945 51.7115 7.10159C 51.8933 7.28374 52.0376 7.49998 52.136 7.73797C 52.2344 7.97595 52.285 8.23102 52.285 8.48862L 59.2405 8.48862C 59.2405 7.96838 59.4469 7.46946 59.8141 7.10159C 60.1814 6.73373 60.6795 6.52707 61.1989 6.52707C 61.7183 6.52707 62.2164 6.73373 62.5837 7.10159C 62.951 7.46946 63.1573 7.96838 63.1573 8.48862L 70.1128 8.48862C 70.1127 8.22928 70.1641 7.97251 70.2638 7.73317C 70.3635 7.49383 70.5096 7.27667 70.6936 7.09426C 70.8777 6.91184 71.096 6.76778 71.336 6.67043C 71.5759 6.57307 71.8328 6.52435 72.0917 6.52707ZM 72.0917 3.56795e-05C 70.1139 -0.00170097 68.1983 0.692569 66.6796 1.96158L 66.635 1.96158C 65.1154 0.694124 63.2004 7.82804e-05 61.2229 7.82804e-05C 59.2454 7.82804e-05 57.3304 0.694124 55.8108 1.96158L 55.7662 1.96158C 54.2466 0.694124 52.3316 7.82804e-05 50.3541 7.82804e-05C 48.3766 7.82804e-05 46.4616 0.694124 44.942 1.96158L 36.0213 1.96158C 35.1298 1.96094 34.2476 2.14354 33.4294 2.49807C 32.6111 2.8526 31.8742 3.37153 31.2643 4.02275L 16.4273 19.9247L 11.0254 19.9247C 9.79965 19.9263 8.5911 20.214 7.49568 20.765C 6.40025 21.3159 5.44809 22.1151 4.71475 23.0989L 3.11307 25.2494L 3.06848 25.3078L 2.09444 26.6235L 1.56283 27.338C 1.30467 27.6839 1.07525 28.0504 0.876887 28.4339C 0.840303 28.5071 0.803719 28.5816 0.767136 28.6572C 0.149724 29.9517 -0.102504 31.3907 0.0377446 32.8184C 0.177993 34.2462 0.705376 35.6084 1.56283 36.7576L 4.71475 41.0001C 5.44809 41.9839 6.40025 42.7831 7.49568 43.334C 8.5911 43.885 9.79965 44.1727 11.0254 44.1743L 16.4273 44.1743L 31.278 60.0659C 31.888 60.7172 32.6249 61.2361 33.4431 61.5906C 34.2613 61.9452 35.1435 62.1278 36.035 62.1271L 81.5989 62.1271C 80.3574 63.7864 78.9958 65.5383 77.5896 67.2285C 76.1342 69.0026 74.5863 70.6985 72.9526 72.3093C 72.1709 73.0652 71.5543 73.9752 71.1416 74.9819C 70.729 75.9886 70.5292 77.0701 70.555 78.158C 70.5808 79.2459 70.8315 80.3167 71.2914 81.3027C 71.7513 82.2886 72.4104 83.1683 73.227 83.8862C 77.5404 87.6809 82.8309 90.1863 88.4961 91.1174C 88.4184 91.4907 88.3372 91.864 88.2526 92.2374C 87.8788 93.8794 87.4157 95.5455 86.8807 97.1842L 86.8807 97.2323L 86.8395 97.3491L 86.7778 97.5346C 86.2633 99.0633 85.6769 100.589 85.0389 102.066C 84.2043 103.989 83.2737 105.87 82.2506 107.7C 82.0516 108.055 81.8516 108.415 81.6504 108.782C 78.4196 114.677 75.2368 121.698 76.1319 129.05C 76.8179 134.752 80.3231 139.139 85.9821 141.417C 89.3432 142.763 93.356 143.389 98.6138 143.389C 100.521 143.389 102.297 143.306 103.594 143.244L 105.439 143.152L 105.535 143.152L 107.082 143.059L 107.185 143.059L 107.507 143.038L 108.193 142.987L 108.879 142.932L 109.565 142.873L 110.656 142.77L 111.136 142.719L 112.209 142.592L 112.281 142.592L 112.497 142.564C 112.933 142.506 113.386 142.444 113.869 142.368L 114.102 142.331L 114.178 142.331C 114.624 142.258 115.042 142.186 115.45 142.111L 115.605 142.083L 115.701 142.063C 119.947 141.252 123.49 139.981 126.521 138.184C 130.338 135.952 133.433 132.668 135.439 128.723C 139.506 120.767 138.433 112.952 137.497 106.051C 137.383 105.226 137.277 104.446 137.178 103.646C 136.739 100.211 136.149 96.6757 135.36 92.8901C 134.094 86.7752 132.434 80.4509 130.284 73.5494C 128.813 68.8259 127.403 64.6486 125.99 60.8389C 128.825 59.86 131.362 58.1686 133.357 55.9264C 136.073 52.8347 137.538 48.8875 137.716 44.1881L 138.104 44.1881C 140.396 44.1853 142.594 43.272 144.215 41.6485C 145.835 40.025 146.747 37.8237 146.75 35.5277L 146.75 28.5816C 146.748 27.4429 146.523 26.3158 146.086 25.2645C 145.649 24.2132 145.01 23.2584 144.205 22.4545C 143.4 21.6507 142.444 21.0135 141.393 20.5794C 140.342 20.1453 139.216 19.9229 138.08 19.9247L 137.685 19.9247C 137.429 15.0835 135.331 10.5245 131.823 7.18473C 128.314 3.84501 123.662 1.97835 118.822 1.96845L 101.131 1.96845C 99.0474 1.97479 97.0507 2.80674 95.5773 4.28261C 94.1038 5.75848 93.2732 7.75837 93.2669 9.84555L 93.2669 12.848C 93.2669 12.9345 93.2325 13.0176 93.1714 13.0788C 93.1103 13.14 93.0274 13.1743 92.941 13.1743C 92.8546 13.1743 92.7717 13.14 92.7106 13.0788C 92.6495 13.0176 92.6152 12.9345 92.6152 12.848L 92.6152 9.83868C 92.6089 7.75209 91.7787 5.75272 90.306 4.27695C 88.8333 2.80117 86.8375 1.96883 84.7543 1.96158L 77.521 1.96158C 75.9977 0.688776 74.0754 -0.00573548 72.0917 3.56795e-05Z"/>
<path id="path15_fill" d="M 33.0422 0C 14.7907 0 4.38916e-11 14.843 4.38916e-11 33.1505C 4.38916e-11 51.46 14.7925 66.3009 33.0422 66.3009C 51.2899 66.3009 66.0824 51.46 66.0824 33.1505C 66.0824 14.8451 51.2899 0 33.0422 0ZM 33.0422 60.0851C 18.2146 60.0851 6.19552 48.0267 6.19552 33.1505C 6.19552 18.2743 18.2167 6.21582 33.0422 6.21582C 47.8678 6.21582 59.8868 18.2743 59.8868 33.1505C 59.8868 48.0267 47.868 60.0851 33.0422 60.0851ZM 46.0279 19.0491C 44.6235 18.208 42.829 18.7072 42.0215 20.1679L 30.942 40.1349L 24.7714 32.5993C 23.6542 31.3085 22.1695 30.6394 20.7672 31.4805C 19.3628 32.3237 18.7825 34.3522 19.6913 35.6534L 28.2781 46.1393C 28.9203 46.9762 29.6534 47.4778 30.4197 47.6208L 30.4259 47.6333L 30.5045 47.6375C 30.678 47.6644 33.2719 48.1451 34.3891 46.1395L 47.1063 23.2223C 47.9133 21.7591 47.4323 19.8923 46.0279 19.0491Z"/>
</defs>
</svg>
