<svg width="246" height="69" viewBox="0 0 246 69" version="1.1" xmlns="http://www.w3.org/2000/svg" xmlns:xlink="http://www.w3.org/1999/xlink">
<title>Artboard 1</title>
<desc>Created using Figma</desc>
<g id="Canvas" transform="translate(804 127)">
<g id="Artboard 1">
<g id="Vector">
<use xlink:href="#path0_fill" transform="translate(-768.257 -127)" fill="#FFFFFF"/>
</g>
<g id="Vector">
<use xlink:href="#path1_fill" transform="translate(-748.779 -89.7559)" fill="#FFFFFF"/>
</g>
<g id="Vector">
<use xlink:href="#path2_fill" transform="translate(-804 -94.2488)" fill="#FFFFFF"/>
</g>
<g id="Vector">
<use xlink:href="#path3_fill" transform="translate(-588.456 -89.7404)" fill="#FFFFFF"/>
</g>
<g id="Vector">
<use xlink:href="#path4_fill" transform="translate(-707.928 -64.1441)" fill="#FFFFFF"/>
</g>
<g id="Vector">
<use xlink:href="#path5_fill" transform="translate(-716.677 -64.1727)" fill="#FFFFFF"/>
</g>
<g id="Vector">
<use xlink:href="#path6_fill" transform="translate(-641.314 -64.3057)" fill="#FFFFFF"/>
</g>
<g id="Vector">
<use xlink:href="#path7_fill" transform="translate(-649.296 -64.1172)" fill="#FFFFFF"/>
</g>
<g id="Vector">
<use xlink:href="#path8_fill" transform="translate(-686.865 -64.1274)" fill="#FFFFFF"/>
</g>
<g id="Vector">
<use xlink:href="#path9_fill" transform="translate(-724.536 -64.1274)" fill="#FFFFFF"/>
</g>
<g id="Vector">
<use xlink:href="#path10_fill" transform="translate(-750.109 -64.1672)" fill="#FFFFFF"/>
</g>
<g id="Vector">
<use xlink:href="#path11_fill" transform="translate(-678.765 -64.1456)" fill="#FFFFFF"/>
</g>
<g id="Vector">
<use xlink:href="#path12_fill" transform="translate(-622.558 -64.1738)" fill="#FFFFFF"/>
</g>
<g id="Vector">
<use xlink:href="#path13_fill" transform="translate(-741.508 -64.1274)" fill="#FFFFFF"/>
</g>
<g id="Vector">
<use xlink:href="#path14_fill" transform="translate(-670.211 -64.1223)" fill="#FFFFFF"/>
</g>
<g id="Vector">
<use xlink:href="#path15_fill" transform="translate(-732.866 -64.1121)" fill="#FFFFFF"/>
</g>
<g id="Vector">
<use xlink:href="#path16_fill" transform="translate(-602.764 -64.1172)" fill="#FFFFFF"/>
</g>
<g id="Vector">
<use xlink:href="#path17_fill" transform="translate(-752.763 -64.1019)" fill="#FFFFFF"/>
</g>
<g id="Vector">
<use xlink:href="#path18_fill" transform="translate(-646.228 -94.2726)" fill="#FFFFFF"/>
</g>
<g id="Vector">
<use xlink:href="#path19_fill" transform="translate(-713.818 -89.7321)" fill="#FFFFFF"/>
</g>
<g id="Vector">
<use xlink:href="#path20_fill" transform="translate(-781.112 -89.7506)" fill="#FFFFFF"/>
</g>
<g id="Vector">
<use xlink:href="#path21_fill" transform="translate(-691.155 -89.7551)" fill="#FFFFFF"/>
</g>
<g id="Vector">
<use xlink:href="#path22_fill" transform="translate(-614.821 -89.7557)" fill="#FFFFFF"/>
</g>
<g id="Vector">
<use xlink:href="#path23_fill" transform="translate(-658.26 -64.158)" fill="#FFFFFF"/>
</g>
<g id="Vector">
<use xlink:href="#path24_fill" transform="translate(-612.034 -64.1638)" fill="#FFFFFF"/>
</g>
<g id="Vector">
<use xlink:href="#path25_fill" transform="translate(-761.868 -64.1376)" fill="#FFFFFF"/>
</g>
<g id="Vector">
<use xlink:href="#path26_fill" transform="translate(-695.701 -64.158)" fill="#FFFFFF"/>
</g>
<g id="Vector">
<use xlink:href="#path27_fill" transform="translate(-631.014 -64.1657)" fill="#FFFFFF"/>
</g>
<g id="Vector">
<use xlink:href="#path28_fill" transform="translate(-770.179 -64.158)" fill="#FFFFFF"/>
</g>
</g>
</g>
<defs>
<path id="path0_fill" d="M 210.257 44.3619C 209.594 40.9097 208.721 37.501 207.644 34.1547C 206.708 31.3937 204.939 29.8728 202.065 29.4798C 198.83 29.0375 195.6 28.5476 192.375 28.01C 190.038 27.6221 187.716 27.1679 185.4 26.6831C 183.604 26.268 181.898 25.5332 180.363 24.5141C 175.25 21.2835 170.136 18.0835 164.716 15.3582C 156.36 11.1529 147.678 7.86615 138.484 6.05438C 135.242 5.41643 131.954 4.97752 128.666 4.64579C 122.325 4.00784 115.964 4.21199 109.603 4.47227C 105.212 4.64289 100.833 5.05007 96.4865 5.69203C 89.4133 6.75569 82.658 9.34738 76.6922 13.2862C 71.8241 16.4555 66.9765 19.6197 62.5892 23.4576C 59.3786 26.2226 55.4198 27.9771 51.2116 28.5C 47.172 29.0818 43.1119 29.5564 39.0466 29.9749C 34.9814 30.3934 30.8651 30.6894 26.7743 31.0517C 22.9289 31.3886 19.0733 31.6846 15.2331 32.0725C 10.1554 32.6134 5.07259 33.134 0.153407 34.6243C 0.117612 34.6243 0.0767027 34.6243 3.12103e-07 34.4814C 1.37042 34.0527 2.72549 33.5831 4.0908 33.2055C 8.5572 32.0429 13.0889 31.1464 17.662 30.521C 23.4198 29.6585 29.1878 28.898 34.9507 28.0712C 39.1745 27.469 43.4033 26.8821 47.6169 26.188C 49.6018 25.8418 51.5679 25.3955 53.5076 24.8509C 56.3763 24.0751 58.7285 22.4012 60.9017 20.421C 66.4345 15.3735 72.5758 11.1529 78.9984 7.33538C 83.8664 4.44165 89.1793 2.74215 94.7275 1.72144C 100.388 0.740021 106.118 0.202502 111.863 0.113807C 114.133 0.0576677 116.404 0.0321493 118.674 0.00663133C 133.135 -0.166891 146.798 3.06878 159.853 9.24922C 166.751 12.4987 173.317 16.4094 179.458 20.9262C 182.918 23.4369 186.908 25.1234 191.122 25.8563C 194.967 26.5963 198.792 27.4894 202.627 28.2652C 205.782 28.9031 207.685 30.817 208.365 33.8791C 208.968 36.5993 209.464 39.3451 209.981 42.0857C 210.139 42.8614 210.175 43.6168 210.257 44.3619Z"/>
<path id="path1_fill" d="M 0.00511303 0.0136082C 1.23747 0.0136082 2.4238 0.0136082 3.58456 0.0136082C 3.83196 0.0586605 4.05405 0.193116 4.2084 0.391276C 7.2765 4.08287 10.3446 7.77956 13.4127 11.4814C 13.5559 11.6549 13.7042 11.8233 13.8985 12.0479L 14.4968 11.3334C 17.5069 7.67239 20.5187 4.01482 23.5323 0.360652C 23.6743 0.176561 23.8806 0.0526463 24.1101 0.0136082C 25.3118 -0.0170134 26.5186 0.0136082 27.7663 0.0136082L 27.7663 20.2953L 23.2153 20.2953L 23.2153 6.37267C 22.9698 6.66358 22.8369 6.81669 22.7039 6.9698L 14.4354 17.4577C 14.3502 17.6004 14.2292 17.7186 14.0845 17.8007C 13.9397 17.8828 13.7761 17.926 13.6096 17.926C 13.4431 17.926 13.2794 17.8828 13.1347 17.8007C 12.9899 17.7186 12.869 17.6004 12.7837 17.4577L 4.38227 7.25049C 4.26977 7.1127 4.14193 6.98511 3.91183 6.74013L 3.91183 20.3259L -1.56051e-06 20.3259L 0.00511303 0.0136082Z"/>
<path id="path2_fill" d="M 17.1507 24.8034L 11.3826 24.8034L 11.3826 4.38908L 1.95064e-08 4.38908L 1.95064e-08 1.55749e-06L 28.5231 1.55749e-06L 28.5231 4.33294L 17.1507 4.33294L 17.1507 24.8034Z"/>
<path id="path3_fill" d="M 13.9496 7.65858C 14.0806 7.44817 14.2258 7.24695 14.3843 7.05635C 16.5268 4.83629 18.6847 2.63154 20.8222 0.421691C 20.9487 0.277905 21.1069 0.165305 21.2843 0.0927019C 21.4617 0.0200991 21.6536 -0.0105364 21.8449 0.00319682C 23.338 0.00319682 24.8311 0.00319682 26.3243 0.00319682L 26.9123 0.00319682L 26.989 0.146097C 26.539 0.579901 26.0788 1.0035 25.6391 1.44241C 22.571 4.50456 19.4944 7.58202 16.4092 10.6748C 16.2681 10.8035 16.1573 10.9617 16.0848 11.1382C 16.0123 11.3147 15.9799 11.505 15.9899 11.6955C 15.9899 14.329 15.9899 16.9624 15.9899 19.5959L 15.9899 20.2899L 11.0605 20.2899L 11.0605 19.5448C 11.0605 16.9522 11.0605 14.3596 11.0605 11.767C 11.0415 11.4165 10.9025 11.0832 10.6667 10.8228C 7.25775 7.35576 3.83513 3.90234 0.398858 0.46252C 0.286361 0.350241 0.178978 0.232859 5.61785e-06 0.0440264C 0.25568 0.0440264 0.424428 0.0134062 0.593173 0.0134062C 2.41358 0.0134062 4.23398 0.0134062 6.05438 0.0134062C 6.24735 0.00174946 6.44038 0.0353781 6.61798 0.111598C 6.79558 0.187818 6.95281 0.304506 7.07708 0.452311C 9.27588 2.79486 11.5412 5.14761 13.9496 7.65858Z"/>
<path id="path4_fill" d="M 7.42995 1.44568C 6.99531 1.38954 6.50441 1.68555 6.28965 1.03229C 6.25385 0.920012 5.93681 0.853665 5.75273 0.848562C 4.40277 0.848562 3.05792 0.848562 1.70795 0.848562C 1.07899 0.848562 1.00741 0.981259 0.986956 1.76211C 0.986956 2.30819 1.13524 2.5991 1.74886 2.58379C 3.07837 2.55827 4.40277 2.58379 5.73228 2.58379C 6.95952 2.58379 7.44529 3.09414 7.44529 4.34962C 7.44529 5.6051 6.96463 6.10526 5.73228 6.11547C 4.34141 6.11547 2.95565 6.11547 1.56478 6.11547C 0.542077 6.11547 0.0307275 5.6051 0.0307275 4.69156C 0.439807 4.69156 0.91025 4.43639 1.15058 5.06413C 1.19661 5.18151 1.50342 5.25806 1.6875 5.25806C 3.03747 5.25806 4.38232 5.25806 5.73228 5.25806C 6.42771 5.25806 6.46351 4.83446 6.45328 4.3241C 6.45328 3.57898 6.34078 3.43608 5.69648 3.43097C 4.36697 3.43097 3.04258 3.43097 1.71307 3.43097C 0.383563 3.43097 -0.00506571 2.92062 4.77853e-05 1.61921C 4.77853e-05 0.501523 0.511402 0.00647317 1.73864 0.00647317C 3.12951 0.00647317 4.51526 0.00647317 5.90614 0.00647317C 6.10403 -0.0126652 6.30374 0.0107579 6.49179 0.0751741C 6.67984 0.13959 6.85187 0.243497 6.99628 0.379889C 7.14069 0.516281 7.25412 0.68199 7.32893 0.865842C 7.40375 1.04969 7.43819 1.24742 7.42995 1.44568Z"/>
<path id="path5_fill" d="M 7.45547 1.46411L 6.52993 1.46411C 6.443 0.953748 6.06972 0.851672 5.58905 0.861879C 4.32091 0.861879 3.0323 0.861879 1.78972 0.861879C 1.12497 0.861879 1.03293 0.979265 1.03293 1.7346C 1.03293 2.48993 1.12497 2.58689 1.80506 2.59199C 3.13457 2.59199 4.45897 2.59199 5.78848 2.59199C 6.96458 2.59199 7.48104 3.10236 7.48615 4.25577C 7.48615 5.60822 7.0464 6.11347 5.81405 6.12367C 4.40272 6.12367 2.99651 6.12367 1.58518 6.12367C 0.593166 6.12367 0.0511359 5.57249 0.0511359 4.68957C 0.455102 4.72529 0.935772 4.45481 1.17099 5.08255C 1.2119 5.19993 1.52382 5.26628 1.71302 5.26628C 3.06298 5.26628 4.40784 5.26628 5.7578 5.26628C 6.46346 5.26628 6.45323 4.81205 6.45834 4.3119C 6.46346 3.81175 6.38165 3.42388 5.74246 3.43409C 4.3925 3.43409 3.04764 3.43409 1.69768 3.43409C 0.455103 3.43409 -2.18472e-06 2.92373 -2.18472e-06 1.66315C -2.18472e-06 0.519943 0.511351 0.00958118 1.69768 0.00958118C 3.10901 0.00958118 4.51522 0.00958118 5.92654 0.00958118C 6.12691 -0.0142137 6.33006 0.00644605 6.5215 0.0700819C 6.71294 0.133718 6.88794 0.238762 7.034 0.37771C 7.18005 0.516658 7.29356 0.686081 7.36642 0.87388C 7.43928 1.06168 7.46969 1.26322 7.45547 1.46411Z"/>
<path id="path6_fill" d="M 4.49476 5.10835L 0.992012 0.872369L 0.992012 6.21582L -7.49047e-06 6.21582L -7.49047e-06 0.0915208C 0.35338 -0.0305638 0.737643 -0.0305076 1.091 0.0916766C 1.44435 0.213861 1.74628 0.451079 1.94825 0.765198C 2.70505 1.82674 3.58968 2.80663 4.505 3.87328C 4.74022 3.59258 4.96009 3.36292 5.16974 3.08222C 5.80999 2.36717 6.41249 1.61934 6.97481 0.841749C 7.48616 0.0455892 8.16625 -0.0922083 9.0202 0.0915208L 9.0202 6.21582L 8.05887 6.21582L 8.05887 1.03569L 7.91057 0.989757L 4.49476 5.10835Z"/>
<path id="path7_fill" d="M 0.992019 3.37347L 0.992019 5.21586L 6.56572 5.21586L 6.56572 6.04264L 0 6.04264L 0 -1.86899e-06L 6.57595 -1.86899e-06L 6.57595 0.780846L 1.0227 0.780846L 1.0227 2.52117L 5.11349 2.52117L 5.11349 3.37347L 0.992019 3.37347Z"/>
<path id="path8_fill" d="M -6.24206e-07 3.73798e-06L 6.58106 3.73798e-06L 6.58106 0.796162L 1.03293 0.796162L 1.03293 2.53648L 5.12372 2.53648L 5.12372 3.38878L 1.03293 3.38878L 1.03293 5.20566L 6.57084 5.20566L 6.57084 6.05285L -6.24206e-07 6.05285L -6.24206e-07 3.73798e-06Z"/>
<path id="path9_fill" d="M 3.12103e-07 3.73798e-06L 6.57595 3.73798e-06L 6.57595 0.796162L 1.02781 0.796162L 1.02781 2.53648L 5.11861 2.53648L 5.11861 3.38878L 1.02781 3.38878L 1.02781 5.20566L 6.56061 5.20566L 6.56061 6.05285L 3.12103e-07 6.05285L 3.12103e-07 3.73798e-06Z"/>
<path id="path10_fill" d="M 7.52707 6.08244C 7.16336 6.1825 6.7788 6.17862 6.41718 6.07125C 6.05557 5.96388 5.73143 5.75732 5.48167 5.47511C 4.08057 3.94403 2.57209 2.55586 1.0227 1.01968L 1.0227 6.09264L -7.80257e-07 6.09264L -7.80257e-07 0.0704119C 0.362988 -0.0272848 0.745934 -0.0232472 1.10677 0.082093C 1.46761 0.187433 1.79237 0.39 2.0454 0.66753C 3.44138 2.19861 4.93964 3.60209 6.50948 5.174L 6.50948 0.0704119L 7.48616 0.0704119L 7.52707 6.08244Z"/>
<path id="path11_fill" d="M 0.0255743 0.0385902C 0.772145 -0.0481708 1.4011 -0.0379633 2.00449 0.605089C 3.41582 2.13616 4.92941 3.56007 6.49414 5.12177L 6.49414 0.043691L 7.48104 0.043691L 7.48104 6.05571C 7.1174 6.157 6.7325 6.15374 6.37064 6.04629C 6.00878 5.93885 5.68468 5.7316 5.43565 5.44839C 4.02943 3.94284 2.53118 2.53424 0.976677 0.992958L 0.976677 6.09654L -2.49682e-06 6.09654L 0.0255743 0.0385902Z"/>
<path id="path12_fill" d="M 4.36944e-06 0.0923556C 0.311101 -0.028778 0.657156 -0.0246518 0.965261 0.103873C 1.27337 0.232398 1.51945 0.47528 1.65165 0.781335C 2.5772 2.31241 3.5999 3.74142 4.63283 5.29291L 5.65553 3.73121C 6.31006 2.74621 7.0106 1.78674 7.60377 0.766025C 7.73769 0.459418 7.98689 0.217562 8.29771 0.0925191C 8.60854 -0.0325241 8.95613 -0.0307537 9.26565 0.0974564L 8.72362 0.903824C 7.64638 2.51996 6.56402 4.1446 5.47655 5.77775C 5.37788 5.89845 5.25414 5.99635 5.11387 6.06469C 4.97361 6.13302 4.82015 6.17017 4.6641 6.17357C 4.50805 6.17697 4.35311 6.14653 4.20999 6.08436C 4.06687 6.02219 3.93898 5.92977 3.83513 5.81347C 2.59766 3.99319 1.3653 2.16781 0.138063 0.337326C 0.0869282 0.265875 0.0562528 0.199531 4.36944e-06 0.0923556Z"/>
<path id="path13_fill" d="M 7.5015 3.73798e-06L 7.5015 0.806363L 4.29022 0.806363L 4.29022 6.04265L 3.26752 6.04265L 3.26752 0.836991L -9.36309e-07 0.836991L -9.36309e-07 3.73798e-06L 7.5015 3.73798e-06Z"/>
<path id="path14_fill" d="M 3.26752 0.821679L 3.12103e-06 0.821679L 3.12103e-06 9.34494e-07L 7.49127 9.34494e-07L 7.49127 0.811469L 4.28 0.811469L 4.28 6.03754L 3.2573 6.03754L 3.26752 0.821679Z"/>
<path id="path15_fill" d="M 3.74524e-06 3.11498e-06L 0.956225 3.11498e-06L 0.956225 5.20055L 7.46059 5.20055L 7.46059 6.04265L 3.74524e-06 6.04265L 3.74524e-06 3.11498e-06Z"/>
<path id="path16_fill" d="M 0 -1.86899e-06L 0.956221 -1.86899e-06L 0.956221 5.21586L 7.47593 5.21586L 7.47593 6.03244L 0 6.03244L 0 -1.86899e-06Z"/>
<path id="path17_fill" d="M 0.935768 6.03754L 1.87262e-06 6.03754L 1.87262e-06 -2.49199e-06L 0.935768 -2.49199e-06L 0.935768 6.03754Z"/>
<path id="path18_fill" d="M 27.0044 16.6462C 26.9481 14.37 25.6851 12.8185 23.4607 12.252L 22.8062 12.0734C 23.3175 11.9305 23.7522 11.8437 24.151 11.6957C 25.6851 11.1241 26.7078 10.0524 26.7896 8.36307C 26.8732 6.73318 26.8424 5.09945 26.6976 3.47384C 26.6551 2.72918 26.3658 2.01974 25.8752 1.4571C 25.3846 0.894466 24.7205 0.510556 23.9874 0.365758C 23.0974 0.143464 22.1844 0.025286 21.267 0.0136089C 14.3945 -0.0170126 7.52195 0.0136089 0.654527 0.0136089L 0 0.0136089L 0 24.8272C 0.143178 24.8272 0.224992 24.8579 0.301694 24.8579C 7.03105 24.8579 13.7604 24.8579 20.4847 24.8579C 21.8926 24.8864 23.2895 24.6041 24.5755 24.0311C 25.29 23.7343 25.8995 23.2314 26.3259 22.5867C 26.7522 21.9421 26.976 21.185 26.9686 20.4126C 27.0231 19.1469 27.035 17.8915 27.0044 16.6462ZM 5.6862 4.02503L 7.32253 4.02503C 11.1628 4.02503 14.9928 4.02503 18.8432 4.02503C 19.3328 4.02489 19.8211 4.07448 20.3006 4.17303C 20.6322 4.2136 20.9366 4.37637 21.1542 4.62941C 21.3718 4.88245 21.4868 5.2075 21.4767 5.54079C 21.5125 6.56151 21.5125 7.5363 21.4767 8.5366C 21.4864 8.85902 21.3773 9.1738 21.1699 9.42122C 20.9626 9.66864 20.6714 9.83148 20.3517 9.87884C 19.955 9.97617 19.5483 10.0275 19.1398 10.0319C 14.7695 10.0319 10.3974 10.0319 6.0237 10.0319C 5.92143 10.0319 5.82426 10.0319 5.68109 10.0319L 5.6862 4.02503ZM 21.6045 18.7846C 21.6061 19.1679 21.4635 19.5378 21.2051 19.8213C 20.9466 20.1048 20.591 20.2812 20.2085 20.3157C 19.8723 20.3891 19.5299 20.4301 19.1858 20.4382C 14.8155 20.4382 10.4435 20.4382 6.06972 20.4382C 5.95211 20.4382 5.83449 20.4382 5.66575 20.4075L 5.66575 14.0995C 5.89074 14.0995 6.10551 14.074 6.32027 14.074L 18.9199 14.074C 21.1187 14.074 21.6403 14.5843 21.6403 16.7687C 21.6557 17.4372 21.6608 18.116 21.6045 18.7846Z"/>
<path id="path19_fill" d="M 23.0107 3.19485C 22.9494 1.59232 22.0545 0.586914 20.454 0.23987C 19.7162 0.0814107 18.9638 0.00100968 18.2092 7.78745e-07C 13.607 7.78745e-07 8.96396 7.78745e-07 4.34136 7.78745e-07L 3.74524e-06 7.78745e-07L 3.74524e-06 20.2714L 4.85782 20.2714L 4.85782 12.3609L 5.63507 12.3609C 9.76677 12.3609 13.8985 12.3609 18.0302 12.3609C 18.8672 12.3631 19.7021 12.2759 20.5205 12.1006C 21.2198 11.991 21.8558 11.6324 22.3107 11.091C 22.7657 10.5497 23.0089 9.86226 22.9954 9.15583C 23.1028 7.15012 23.1028 5.16993 23.0107 3.19485ZM 18.4086 7.45634C 18.4212 7.76892 18.3104 8.07396 18.1 8.30587C 17.8897 8.53778 17.5965 8.67805 17.2836 8.69651C 17.0254 8.75775 16.7615 8.79196 16.4961 8.79858C 12.7156 8.79858 8.93669 8.79858 5.15952 8.79858C 5.08282 8.79858 5.001 8.79858 4.86294 8.76796L 4.86294 3.5572C 5.08282 3.5572 5.28224 3.52658 5.47655 3.52658L 16.5115 3.52658C 17.9995 3.57251 18.4444 4.03694 18.4444 5.49656C 18.4648 6.14982 18.5006 6.80818 18.429 7.45124L 18.4086 7.45634Z"/>
<path id="path20_fill" d="M 28.9015 20.0093C 24.947 13.4597 20.9892 6.91345 17.0279 0.370657C 16.955 0.273097 16.8621 0.192148 16.7555 0.13319C 16.6488 0.0742328 16.5307 0.0386188 16.4092 0.0287177C 15.1411 -0.00190378 13.8525 0.0287201 12.6048 0.00320214C 12.4267 -0.0122871 12.2483 0.0287087 12.095 0.120349C 11.9416 0.211989 11.8212 0.349597 11.7508 0.513561C 7.96001 6.91346 4.15898 13.3151 0.347718 19.7184C 0.240335 19.9021 0.138065 20.0858 6.24206e-07 20.3359C 1.60052 20.3359 3.0681 20.3359 4.60215 20.3359C 4.72096 20.3117 4.83336 20.2629 4.93203 20.1926C 5.0307 20.1222 5.11344 20.0319 5.17485 19.9276C 5.88052 18.7334 6.56232 17.5272 7.22025 16.3092C 7.27994 16.1483 7.39071 16.0114 7.53566 15.9192C 7.68062 15.8271 7.85179 15.7848 8.02308 15.7988C 12.1752 15.8158 16.3257 15.8158 20.4744 15.7988C 20.6323 15.7817 20.7916 15.8149 20.9294 15.8938C 21.0672 15.9727 21.1765 16.093 21.2415 16.2377C 21.9233 17.4728 22.617 18.6976 23.3227 19.9123C 23.43 20.0909 23.6601 20.3104 23.834 20.3155C 25.547 20.3461 27.2652 20.3155 29.06 20.3155C 28.968 20.1522 28.9424 20.0756 28.9015 20.0093ZM 9.60314 12.063L 14.2053 3.66247L 18.9302 12.063L 9.60314 12.063Z"/>
<path id="path21_fill" d="M 28.9322 20.0597C 24.9675 13.4931 20.9994 6.9299 17.0279 0.370093C 16.9548 0.272769 16.8619 0.191987 16.7552 0.133054C 16.6486 0.0741221 16.5307 0.0383742 16.4092 0.0281535C 15.1206 -0.00246802 13.8525 0.0281519 12.5434 0.002634C 12.3848 -0.0105749 12.226 0.0261313 12.0893 0.107597C 11.9527 0.189063 11.845 0.311197 11.7815 0.456853C 7.96341 6.89758 4.14023 13.3349 0.311923 19.7688C 0.214767 19.9321 0.127837 20.1006 -3.12103e-07 20.3302C 1.53405 20.3302 2.97094 20.3302 4.40272 20.3302C 4.57429 20.346 4.74624 20.3044 4.89156 20.212C 5.03688 20.1197 5.14732 19.9817 5.20554 19.8199C 5.85495 18.6205 6.56062 17.4467 7.21003 16.2473C 7.26972 16.0865 7.38048 15.9496 7.52543 15.8574C 7.67038 15.7653 7.84156 15.723 8.01284 15.737C 12.165 15.737 16.3155 15.737 20.4642 15.737C 20.6227 15.7203 20.7824 15.7543 20.9203 15.8341C 21.0582 15.9139 21.1671 16.0354 21.2312 16.181C 21.913 17.4161 22.6068 18.6409 23.3124 19.8556C 23.3655 19.9536 23.4383 20.0396 23.5263 20.1081C 23.6143 20.1766 23.7156 20.2262 23.8238 20.2537C 25.5368 20.2843 27.2498 20.2537 29.0242 20.2537C 28.9969 20.1874 28.9662 20.1227 28.9322 20.0597ZM 9.64405 12.0675L 14.2053 3.64659L 18.9404 12.0675L 9.64405 12.0675Z"/>
<path id="path22_fill" d="M 28.9015 20.0093C 24.947 13.4597 20.9892 6.91346 17.0279 0.37066C 16.955 0.2731 16.8621 0.192147 16.7555 0.133189C 16.6488 0.0742317 16.5308 0.0386216 16.4092 0.0287205C 15.1411 -0.00190097 13.8525 0.028719 12.6048 0.00320105C 12.4267 -0.0122882 12.2483 0.0287076 12.095 0.120348C 11.9416 0.211988 11.8212 0.349596 11.7508 0.51356C 7.96 6.91686 4.15898 13.3202 0.347721 19.7235C 0.240337 19.9072 0.138071 20.0909 6.86627e-06 20.341C 1.60053 20.341 3.0681 20.341 4.60215 20.341C 4.72097 20.3168 4.83336 20.268 4.93203 20.1977C 5.0307 20.1273 5.11344 20.0371 5.17486 19.9327C 5.88052 18.7385 6.56232 17.5323 7.22026 16.3143C 7.27995 16.1534 7.39072 16.0165 7.53567 15.9243C 7.68062 15.8322 7.85178 15.7899 8.02307 15.8039C 12.1752 15.8209 16.3257 15.8209 20.4744 15.8039C 20.6329 15.7872 20.7927 15.8212 20.9305 15.901C 21.0684 15.9808 21.1773 16.1023 21.2415 16.2479C 21.9233 17.483 22.617 18.7078 23.3227 19.9225C 23.4249 20.1011 23.6601 20.3206 23.834 20.3257C 25.547 20.3563 27.2652 20.3257 29.06 20.3257C 28.968 20.1573 28.9322 20.0807 28.9015 20.0093ZM 9.62359 12.0987L 14.1951 3.66247L 18.9404 12.0987L 9.62359 12.0987Z"/>
<path id="path23_fill" d="M 4.7402 3.91445L 5.7629 3.91445C 6.88787 3.91445 7.40434 3.40409 7.40945 2.26599C 7.40945 2.02102 7.40945 1.75563 7.40945 1.53107C 7.40945 0.546081 6.8981 -2.80348e-06 5.9112 -2.80348e-06C 4.055 -2.80348e-06 2.19369 -2.80348e-06 0.337493 -2.80348e-06C 0.223114 0.0111837 0.110087 0.0334055 6.24206e-07 0.0663463L 6.24206e-07 6.08858L 0.99202 6.08858L 0.99202 3.97569C 2.3471 3.78686 3.54876 3.83789 4.53567 4.88923C 4.83736 5.21586 5.27201 5.39959 5.58905 5.72112C 6.1004 6.23148 6.65778 6.15492 7.37367 6.07837L 4.70442 4.03694L 4.7402 3.91445ZM 1.72325 3.06215C 1.2119 3.06215 0.956227 2.86311 0.96134 2.30172C 0.96134 0.852301 0.961333 0.852295 2.42379 0.852295L 3.70728 0.852295C 4.38227 0.852295 5.05214 0.852295 5.72712 0.852295C 6.18222 0.852295 6.38164 1.03603 6.39187 1.51066C 6.43278 3.04174 6.443 3.04174 4.89872 3.04174C 3.85046 3.05705 2.78686 3.04684 1.72836 3.06215L 1.72325 3.06215Z"/>
<path id="path24_fill" d="M 7.78293 1.10816C 7.74578 0.797874 7.59216 0.51318 7.35304 0.311455C 7.11392 0.109731 6.80707 0.00597138 6.49434 0.0210922C 4.7762 -0.00442575 3.05806 -0.00952933 1.34504 0.0210922C 1.15997 0.0167515 0.976057 0.0514875 0.805369 0.123022C 0.634681 0.194557 0.48107 0.30128 0.354583 0.436195C 0.228096 0.571109 0.131587 0.731174 0.0713964 0.905903C 0.0112055 1.08063 -0.0113102 1.26608 0.00530857 1.4501C 0.00530857 2.26667 0.00530857 3.08325 0.00530857 3.89982C 0.00530857 4.62453 0.00530857 5.35434 0.00530857 6.08926L 1.02801 6.08926L 1.02801 4.4408L 6.81137 4.4408L 6.81137 6.08926L 7.78293 6.08926C 7.79316 4.40507 7.81872 2.75662 7.78293 1.10816ZM 6.80115 3.51705L 1.01777 3.51705C 1.01777 2.77703 0.981985 2.06763 1.04335 1.36844C 1.08428 1.2488 1.15505 1.14153 1.24898 1.05671C 1.34291 0.971888 1.4569 0.912318 1.58026 0.883599C 3.13135 0.842771 4.68074 0.842771 6.22842 0.883599C 6.35214 0.911068 6.46683 0.969521 6.56166 1.05345C 6.65648 1.13738 6.72833 1.24403 6.77045 1.36334C 6.83693 2.06253 6.80115 2.77703 6.80115 3.51705Z"/>
<path id="path25_fill" d="M 7.74467 1.04113C 7.6962 0.746961 7.54147 0.480694 7.3097 0.292631C 7.07793 0.104567 6.78518 0.00772952 6.48675 0.0204125C 4.74816 -0.00680665 3.01128 -0.00680665 1.2761 0.0204125C 0.977671 0.00772952 0.684922 0.104567 0.453155 0.292631C 0.221388 0.480694 0.0666523 0.746961 0.018181 1.04113C -0.022727 2.7049 0.018181 4.37377 0.018181 6.06816L 0.99486 6.06816L 0.99486 4.42991L 6.79868 4.42991L 6.79868 6.06816L 7.77535 6.06816C 7.77535 4.37377 7.80092 2.7049 7.74467 1.04113ZM 6.77311 3.48575L 1.00509 3.48575C 1.00509 2.75084 0.969291 2.05675 1.00509 1.37287C 1.04002 1.25153 1.10527 1.14104 1.19472 1.05177C 1.28416 0.962497 1.39486 0.897375 1.51644 0.862509C 3.08798 0.82168 4.65782 0.82168 6.22596 0.862509C 6.34754 0.897375 6.45824 0.962497 6.54768 1.05177C 6.63713 1.14104 6.70238 1.25153 6.73731 1.37287C 6.82424 2.05675 6.78845 2.75083 6.78845 3.48064L 6.77311 3.48575Z"/>
<path id="path26_fill" d="M 5.95722 -2.80348e-06C 4.12147 -2.80348e-06 2.28062 -2.80348e-06 0.444872 -2.80348e-06C 0.306807 -2.80348e-06 0.168745 0.0255161 0 0.0408268L 0 6.1141C 2.1221 6.1141 4.17772 6.13962 6.23846 6.1141C 6.42053 6.11491 6.60076 6.07765 6.76752 6.00472C 6.93429 5.9318 7.08391 5.82482 7.20675 5.69069C 7.32958 5.55655 7.42291 5.39823 7.48072 5.22592C 7.53853 5.0536 7.55954 4.87111 7.54241 4.69019C 7.54241 3.66948 7.54241 2.61303 7.54241 1.5719C 7.54241 0.530771 7.03105 0.00510078 5.95722 -2.80348e-06ZM 6.52994 4.5575C 6.52994 5.06786 6.34073 5.272 5.84984 5.272C 4.46238 5.272 3.07492 5.272 1.68745 5.272C 1.21701 5.272 0.971563 5.09848 0.98179 4.58302C 1.00224 3.56231 1.00224 2.54159 0.98179 1.52087C 0.98179 1.01051 1.2119 0.831886 1.69257 0.842094C 2.388 0.842094 3.07833 0.842094 3.77376 0.842094C 4.4692 0.842094 5.12372 0.842094 5.81916 0.842094C 6.33051 0.842094 6.57084 1.01051 6.56062 1.55149C 6.51971 2.5569 6.51971 3.5572 6.51971 4.5575L 6.52994 4.5575Z"/>
<path id="path27_fill" d="M 7.47417 1.46728C 7.49144 1.28305 7.46961 1.09727 7.41011 0.922032C 7.35061 0.746792 7.25479 0.58603 7.12886 0.450237C 7.00293 0.314444 6.84974 0.206667 6.67928 0.133926C 6.50882 0.061185 6.32492 0.0251153 6.13956 0.0280713C 4.54755 -0.00935502 2.95385 -0.00935502 1.35844 0.0280713C 1.17296 0.0238832 0.988675 0.0586321 0.817515 0.130071C 0.646354 0.201511 0.492128 0.308045 0.364856 0.442769C 0.237584 0.577493 0.140099 0.737402 0.0787048 0.912134C 0.0173101 1.08687 -0.00662397 1.27253 0.008466 1.45708C 0.008466 2.47779 0.008466 3.53934 0.008466 4.57537C -0.0144475 4.78315 0.0092658 4.99341 0.0778777 5.19091C 0.14649 5.38841 0.25828 5.5682 0.405149 5.71723C 0.552018 5.86625 0.730277 5.98079 0.927001 6.05252C 1.12372 6.12426 1.33398 6.15139 1.54251 6.13196C 2.2584 6.13196 2.9743 6.13196 3.69019 6.13196C 4.46744 6.13196 5.22424 6.13196 6.02194 6.13196C 6.21724 6.14278 6.41258 6.11175 6.59487 6.04096C 6.77715 5.97017 6.94215 5.86125 7.07875 5.72153C 7.21535 5.5818 7.3204 5.41452 7.38684 5.23091C 7.45329 5.0473 7.47958 4.85161 7.46395 4.65702C 7.47759 3.58867 7.48099 2.52542 7.47417 1.46728ZM 5.75093 5.27966C 4.40608 5.27966 3.05612 5.27966 1.71127 5.27966C 1.26639 5.27966 1.02095 5.10103 1.02606 4.6264C 1.02606 3.58867 1.02606 2.54924 1.02606 1.50811C 1.02606 1.04368 1.24594 0.849746 1.70615 0.85485L 4.77425 0.85485C 5.10151 0.85485 5.42878 0.85485 5.75604 0.85485C 6.24183 0.85485 6.47704 1.02838 6.47193 1.52853C 6.47193 2.54924 6.47193 3.56996 6.47193 4.59068C 6.46682 5.08062 6.26228 5.28476 5.75093 5.27966Z"/>
<path id="path28_fill" d="M 7.41457 1.58211C 7.3532 0.535877 6.90322 0.0102044 5.82938 -2.80348e-06C 4.19307 -2.80348e-06 2.56186 -2.80348e-06 0.925544 -2.80348e-06L -7.80257e-07 -2.80348e-06L -7.80257e-07 6.08347L 0.971564 6.08347L 0.971564 3.91955C 2.40334 3.91955 3.74819 3.88893 5.09304 3.91955C 6.98503 3.97569 7.52195 3.52658 7.41457 1.58211ZM 4.85782 3.05705L 1.63632 3.05705C 1.19656 3.05705 0.976679 2.87843 0.961339 2.39869C 0.920431 0.867613 0.910202 0.867613 2.44936 0.867613C 3.52831 0.867613 4.60726 0.867613 5.69132 0.867613C 6.17199 0.867613 6.38675 1.04624 6.39187 1.55149C 6.41744 3.05705 6.43278 3.05705 4.87316 3.05705L 4.85782 3.05705Z"/>
</defs>
</svg>
