<svg width="176" height="212" viewBox="0 0 176 212" version="1.1" xmlns="http://www.w3.org/2000/svg" xmlns:xlink="http://www.w3.org/1999/xlink">
<title>Group</title>
<desc>Created using Figma</desc>
<g id="Canvas" transform="translate(-73 -693)">
<g id="Group">
<g id="002-cancel">
<g id="Group">
<g id="Vector">
<use xlink:href="#path0_fill" transform="translate(94.9502 838.312)" fill="#E2574C"/>
</g>
</g>
</g>
<g id="paint">
<g id="Layer 2">
<g id="Layer 1">
<g id="Vector">
<use xlink:href="#path1_fill" transform="matrix(-1 0 0 1 87.8392 788.271)" fill="#303C42"/>
</g>
<g id="Vector">
<use xlink:href="#path2_fill" transform="matrix(-1 0 0 1 87.7238 766.194)" fill="#303C42"/>
</g>
<g id="Vector">
<use xlink:href="#path3_fill" transform="matrix(-1 0 0 1 87.8198 802.835)" fill="#303C42"/>
</g>
<g id="Vector">
<use xlink:href="#path4_fill" transform="matrix(-1 0 0 1 248.696 693)" fill="#303C42"/>
</g>
<g id="Vector">
<use xlink:href="#path5_fill" transform="matrix(-1 0 0 1 241.382 788.901)" fill="#CCCCCC"/>
</g>
<g id="Vector">
<use xlink:href="#path6_fill" transform="matrix(-1 0 0 1 198.62 729.646)" fill="#EF4438"/>
</g>
<g id="Vector" opacity="0.1">
<use xlink:href="#path7_fill" transform="matrix(-1 0 0 1 190.876 729.646)" fill="#010101"/>
</g>
<g id="Vector">
<use xlink:href="#path8_fill" transform="matrix(-1 0 0 1 211.489 817.541)" fill="#CCCCCC"/>
</g>
<g id="Vector" opacity="0.1">
<use xlink:href="#path9_fill" transform="matrix(-1 0 0 1 211.489 839.345)" fill="#010101"/>
</g>
<g id="Vector">
<use xlink:href="#path10_fill" transform="matrix(-1 0 0 1 212.11 773.618)" fill="#989898"/>
</g>
<g id="Vector" opacity="0.1">
<use xlink:href="#path11_fill" transform="matrix(-1 0 0 1 212.11 798.534)" fill="#010101"/>
</g>
<g id="Vector" opacity="0.2">
<use xlink:href="#path12_fill" transform="matrix(-1 0 0 1 210.985 773.618)" fill="#FFFFFF"/>
</g>
<g id="Vector">
<use xlink:href="#path13_fill" transform="matrix(-1 0 0 1 124.309 766.287)" fill="#989898"/>
</g>
<g id="Vector" opacity="0.2">
<use xlink:href="#path14_fill" transform="matrix(-1 0 0 1 124.309 766.287)" fill="#FFFFFF"/>
</g>
<g id="Vector" opacity="0.1">
<use xlink:href="#path15_fill" transform="matrix(-1 0 0 1 124.309 805.023)" fill="#010101"/>
</g>
<g id="Vector">
<use xlink:href="#path16_fill" transform="matrix(-1 0 0 1 109.677 783.209)" fill="#CCCCCC"/>
</g>
<g id="Vector">
<use xlink:href="#path17_fill" transform="matrix(-1 0 0 1 205.271 817.541)" fill="url(#paint17_linear)"/>
</g>
<g id="Vector">
<use xlink:href="#path18_fill" transform="matrix(-1 0 0 1 203.913 701.216)" fill="url(#paint18_linear)"/>
</g>
<g id="Vector">
<use xlink:href="#path1_fill" transform="matrix(-1 0 0 1 87.8392 788.271)" fill="url(#paint19_linear)"/>
</g>
<g id="Vector">
<use xlink:href="#path2_fill" transform="matrix(-1 0 0 1 87.7238 766.194)" fill="url(#paint20_linear)"/>
</g>
<g id="Vector">
<use xlink:href="#path3_fill" transform="matrix(-1 0 0 1 87.8198 802.835)" fill="url(#paint21_linear)"/>
</g>
</g>
</g>
</g>
</g>
</g>
<defs>
<linearGradient id="paint17_linear" x1="0" y1="0" x2="1" y2="0" gradientUnits="userSpaceOnUse" gradientTransform="matrix(13.607 13.7023 13.6802 -13.6291 0.748864 1.37758)">
<stop offset="0" stop-color="#231F20" stop-opacity="0.1"/>
<stop offset="1" stop-color="#231F20" stop-opacity="0"/>
</linearGradient>
<linearGradient id="paint18_linear" x1="0" y1="0" x2="1" y2="0" gradientUnits="userSpaceOnUse" gradientTransform="matrix(34.3075 -16.0256 15.9997 34.3631 -3.77784 6.19553)">
<stop offset="0" stop-color="#FFFFFF" stop-opacity="0.2"/>
<stop offset="1" stop-color="#FFFFFF" stop-opacity="0"/>
</linearGradient>
<linearGradient id="paint19_linear" x1="0" y1="0" x2="1" y2="0" gradientUnits="userSpaceOnUse" gradientTransform="matrix(539.579 -126.018 251.569 270.29 6785.13 2039.12)">
<stop offset="0" stop-color="#FFFFFF" stop-opacity="0.2"/>
<stop offset="1" stop-color="#FFFFFF" stop-opacity="0"/>
</linearGradient>
<linearGradient id="paint20_linear" x1="0" y1="0" x2="1" y2="0" gradientUnits="userSpaceOnUse" gradientTransform="matrix(663.017 -309.625 309.055 664.241 6738.47 3284.25)">
<stop offset="0" stop-color="#FFFFFF" stop-opacity="0.2"/>
<stop offset="1" stop-color="#FFFFFF" stop-opacity="0"/>
</linearGradient>
<linearGradient id="paint21_linear" x1="0" y1="0" x2="1" y2="0" gradientUnits="userSpaceOnUse" gradientTransform="matrix(425.18 -198.61 198.289 425.868 6959.81 4953)">
<stop offset="0" stop-color="#FFFFFF" stop-opacity="0.2"/>
<stop offset="1" stop-color="#FFFFFF" stop-opacity="0"/>
</linearGradient>
<path id="path0_fill" d="M 38.8928 33.1257L 44.733 27.2663C 45.5404 26.4542 45.5404 25.1446 44.733 24.3367L 41.8129 21.4049C 41.0055 20.5969 39.7002 20.5948 38.8928 21.4049L 33.0505 27.2663L 27.2124 21.4091C 26.4029 20.5969 25.0956 20.5969 24.2881 21.4049L 21.368 24.3367C 20.5606 25.1446 20.5627 26.4584 21.3722 27.2684L 27.2103 33.1257L 21.3824 38.9725C 20.5749 39.7826 20.5749 41.0921 21.3824 41.9022L 24.3025 44.8339C 25.1099 45.6419 26.4152 45.644 27.2226 44.8339L 33.0503 38.9871L 38.9194 44.8775C 39.7289 45.6896 41.0362 45.6896 41.8437 44.8796L 44.7638 41.9499C 45.5712 41.1399 45.5691 39.8282 44.7617 39.0161L 38.8928 33.1257ZM 33.0422 4.40354e-11C 14.7925 4.40354e-11 0 14.8412 0 33.1484C 0 51.4579 14.7925 66.2989 33.0422 66.2989C 51.2919 66.2989 66.0844 51.4579 66.0844 33.1484C 66.0844 14.8433 51.2917 4.40354e-11 33.0422 4.40354e-11ZM 33.0422 60.0833C 18.2146 60.0833 6.19552 48.0248 6.19552 33.1486C 6.19552 18.2724 18.2146 6.21373 33.0422 6.21373C 47.8698 6.21373 59.8889 18.2722 59.8889 33.1484C 59.8889 48.0246 47.8698 60.0833 33.0422 60.0833Z"/>
<path id="path1_fill" d="M 11.0871 0.00171313L 3.77154 0.00171313C 3.28176 -0.0133103 2.79397 0.0703416 2.33708 0.247701C 1.88019 0.425061 1.46351 0.692523 1.11176 1.03422C 0.760014 1.37591 0.480358 1.78487 0.289383 2.23686C 0.0984072 2.68884 -3.97487e-07 3.17465 -3.97487e-07 3.66544C -3.97487e-07 4.15624 0.0984072 4.64204 0.289383 5.09403C 0.480358 5.54602 0.760014 5.95498 1.11176 6.29667C 1.46351 6.63837 1.88019 6.90583 2.33708 7.08319C 2.79397 7.26055 3.28176 7.3442 3.77154 7.32918L 11.0871 7.32918C 12.0379 7.30001 12.9399 6.90123 13.6021 6.21733C 14.2643 5.53343 14.6346 4.61815 14.6346 3.66544C 14.6346 2.71274 14.2643 1.79746 13.6021 1.11356C 12.9399 0.429657 12.0379 0.0308758 11.0871 0.00171313Z"/>
<path id="path2_fill" d="M 3.65621 14.7511C 4.13673 14.7514 4.61258 14.6565 5.05638 14.472C 5.50018 14.2875 5.90319 14.0169 6.24223 13.6758L 13.5578 6.34837C 13.9177 6.01287 14.2063 5.6082 14.4065 5.15851C 14.6068 4.70882 14.7145 4.22333 14.7233 3.73102C 14.7321 3.23871 14.6418 2.74966 14.4577 2.29309C 14.2737 1.83651 13.9997 1.42176 13.6521 1.07358C 13.3044 0.725409 12.8904 0.450956 12.4345 0.266603C 11.9787 0.0822501 11.4904 -0.00822284 10.9989 0.000585928C 10.5074 0.0093947 10.0227 0.117305 9.57373 0.317874C 9.12477 0.518442 8.72076 0.807561 8.3858 1.16797L 1.07019 8.49542C 0.559067 9.00803 0.211072 9.66085 0.0701422 10.3714C -0.0707875 11.082 0.00166956 11.8185 0.278377 12.4879C 0.555085 13.1572 1.02363 13.7295 1.62482 14.1323C 2.22602 14.5351 2.93291 14.7504 3.65621 14.7511Z"/>
<path id="path3_fill" d="M 6.3381 1.16796C 6.00315 0.807557 5.59913 0.518443 5.15017 0.317875C 4.7012 0.117306 4.21651 0.00939595 3.72499 0.000587186C 3.23347 -0.00822158 2.74522 0.0822461 2.28938 0.266599C 1.83354 0.450952 1.41946 0.725415 1.07185 1.07359C 0.724241 1.42176 0.450232 1.83651 0.266177 2.29309C 0.0821223 2.74967 -0.00820954 3.2387 0.00058498 3.73101C 0.0093795 4.22333 0.117115 4.70882 0.317359 5.15851C 0.517604 5.6082 0.806249 6.01288 1.16607 6.34837L 8.48168 13.6758C 8.81664 14.0362 9.22065 14.3253 9.66961 14.5259C 10.1186 14.7265 10.6033 14.8344 11.0948 14.8432C 11.5863 14.852 12.0746 14.7615 12.5304 14.5772C 12.9862 14.3928 13.4003 14.1184 13.7479 13.7702C 14.0955 13.422 14.3696 13.0073 14.5536 12.5507C 14.7377 12.0941 14.828 11.6051 14.8192 11.1128C 14.8104 10.6205 14.7027 10.135 14.5024 9.68528C 14.3022 9.23559 14.0135 8.83092 13.6537 8.49542L 6.3381 1.16796Z"/>
<path id="path4_fill" d="M 151.63 88.3298L 139.019 82.0123L 139.019 80.6142C 139.014 76.7288 137.471 73.0039 134.728 70.2566C 131.986 67.5092 128.267 65.9638 124.388 65.9592L 120.728 65.9592C 120.247 65.9588 119.771 66.0533 119.327 66.2373C 118.883 66.4214 118.479 66.6914 118.139 67.0318C 117.799 67.3723 117.53 67.7765 117.346 68.2215C 117.162 68.6664 117.068 69.1432 117.069 69.6247L 117.069 73.2901L 102.437 73.2901C 99.327 73.3013 96.3015 74.307 93.8017 76.1608C 91.3019 78.0145 89.4585 80.6195 88.5401 83.596L 85.0898 74.9563C 90.4555 72.2728 94.7107 67.7884 97.1138 62.2846C 99.5168 56.7808 99.9151 50.6069 98.2394 44.8391L 85.8821 2.6367C 85.7477 2.17423 85.5236 1.74288 85.2225 1.36739C 84.9213 0.991902 84.5491 0.679661 84.1272 0.448583C 83.7054 0.217506 83.2421 0.0721396 82.7639 0.0208248C 82.2858 -0.0304901 81.8023 0.0132562 81.3411 0.149554L 39.2172 12.5166C 38.2863 12.7907 37.5019 13.4235 37.0364 14.2763C 36.5708 15.129 36.4621 16.1319 36.7341 17.0649L 49.0811 59.257C 50.7995 65.3493 54.7342 70.5758 60.1096 73.906C 65.485 77.2361 71.911 78.4284 78.1206 77.2476L 82.3975 87.945L 43.9022 87.945C 40.022 87.9487 36.3017 89.4942 33.558 92.2424C 30.8142 94.9906 29.2712 98.7169 29.2676 102.603L 21.952 102.603L 21.952 91.6105C 21.9524 91.129 21.8581 90.6522 21.6743 90.2073C 21.4906 89.7623 21.221 89.3581 20.8811 89.0176C 20.5412 88.6772 20.1376 88.4072 19.6934 88.2232C 19.2492 88.0391 18.7731 87.9446 18.2924 87.945C 13.441 87.945 8.78823 89.8754 5.35773 93.3115C 1.92723 96.7475 3.83422e-11 101.408 3.83381e-11 106.267C 3.83431e-11 111.126 1.92723 115.787 5.35773 119.223C 8.78823 122.659 13.441 124.589 18.2924 124.589C 18.7731 124.59 19.2492 124.495 19.6934 124.311C 20.1376 124.127 20.5412 123.857 20.8811 123.517C 21.221 123.176 21.4906 122.772 21.6743 122.327C 21.8581 121.882 21.9524 121.405 21.952 120.924L 21.952 109.931L 29.2676 109.931C 29.2738 112.445 29.9273 114.914 31.165 117.101C 32.4027 119.288 34.1826 121.118 36.3328 122.415L 29.3053 171.704C 29.2305 172.224 29.2683 172.754 29.416 173.258C 29.5638 173.762 29.8181 174.228 30.1616 174.625C 30.5051 175.022 30.9299 175.34 31.4071 175.558C 31.8843 175.776 32.4026 175.889 32.9271 175.888C 38.0161 175.883 43.0136 174.533 47.415 171.974C 51.8164 169.416 55.4659 165.739 57.995 161.316L 78.9506 124.586L 85.5425 124.586L 73.5556 148.598C 73.1527 149.464 73.1027 150.452 73.4165 151.354C 73.7302 152.256 74.3829 152.999 75.2356 153.426C 76.0882 153.853 77.0736 153.93 77.982 153.641C 78.8904 153.351 79.6501 152.718 80.0995 151.876L 93.7224 124.586L 117.069 124.586L 117.069 128.251C 117.068 128.733 117.162 129.21 117.346 129.654C 117.53 130.099 117.799 130.504 118.139 130.844C 118.479 131.185 118.883 131.455 119.327 131.639C 119.771 131.823 120.247 131.917 120.728 131.917L 124.388 131.917C 128.268 131.913 131.988 130.367 134.732 127.619C 137.476 124.871 139.019 121.145 139.022 117.258L 139.022 115.86L 151.633 109.543C 152.241 109.238 152.752 108.771 153.11 108.192C 153.467 107.613 153.657 106.946 153.657 106.265L 153.657 91.6105C 153.657 90.929 153.467 90.2609 153.109 89.6814C 152.751 89.1019 152.239 88.6338 151.63 88.3298ZM 47.9459 29.3151L 44.7871 18.5249L 79.8903 8.21903L 86.0638 29.322L 47.9459 29.3151Z"/>
<path id="path5_fill" d="M 7.32171 20.7319C 5.18071 19.9749 3.32681 18.5714 2.01549 16.7149C 0.704178 14.8583 1.02291e-07 12.6401 1.02291e-07 10.366C 1.02291e-07 8.09179 0.704178 5.87359 2.01549 4.01705C 3.32681 2.16051 5.18071 0.75703 7.32171 1.25804e-06L 7.32171 20.7319Z"/>
<path id="path6_fill" d="M 14.8198 31.4775C 12.7074 30.3309 10.8435 28.7753 9.33623 26.9012C 7.82898 25.027 6.70847 22.8716 6.03975 20.5602L 0 -6.29019e-07L 38.1386 -6.29019e-07L 41.1396 10.244C 42.1575 13.7207 42.1233 17.4216 41.0414 20.8789C 39.9595 24.3362 37.8784 27.3945 35.0613 29.6672C 32.2442 31.9399 28.8176 33.3249 25.2147 33.6471C 21.6118 33.9693 17.9944 33.2143 14.8198 31.4775Z"/>
<path id="path7_fill" d="M 33.3952 10.244L 30.3942 -6.29019e-07L 24.7215 -6.29019e-07L 25.5755 2.91656C 26.5871 6.32445 26.5832 9.95405 25.5642 13.3597C 24.5452 16.7654 22.5555 19.799 19.8394 22.0879C 17.1233 24.3768 13.7989 25.8215 10.2746 26.2446C 6.75022 26.6677 3.17921 26.0507 6.28002e-07 24.4695C 2.21729 28.3674 5.78711 31.3136 10.031 32.7479C 14.2748 34.1823 18.8969 34.005 23.0188 32.2496C 27.1407 30.4942 30.475 27.2831 32.388 23.2267C 34.3011 19.1703 34.6595 14.5512 33.3952 10.2474L 33.3952 10.244Z"/>
<path id="path8_fill" d="M 14.4357 33.1402C 12.9089 35.809 10.8316 38.1211 8.34239 39.9225C 5.85317 41.7239 3.00918 42.9731 1.15134e-06 43.5869L 6.21809 -4.19346e-07C 6.37929 -4.19346e-07 6.53363 0.0480986 6.69482 0.0480986L 33.3164 0.0480986L 14.4357 33.1402Z"/>
<path id="path9_fill" d="M 14.4357 9.40236C 11.4244 13.7789 6.3347 16.8123 0.548757 17.9219L 1.15134e-06 21.7797C 3.00888 21.1663 5.85268 19.9176 8.34188 18.1168C 10.8311 16.3161 12.9085 14.0046 14.4357 11.3364L 20.911 0L 14.4357 9.40236Z"/>
<path id="path10_fill" d="M 7.31561 36.6407C 5.37622 36.638 3.51705 35.8651 2.1457 34.4915C 0.774345 33.118 0.00272132 31.2558 -6.28002e-07 29.3133L -6.28002e-07 21.9858C 0.00181392 20.0427 0.773038 18.1796 2.14449 16.8053C 3.51594 15.431 5.37563 14.6576 7.31561 14.6549L 54.8756 14.6549C 55.3563 14.6554 55.8324 14.5609 56.2766 14.3768C 56.7208 14.1928 57.1244 13.9228 57.4643 13.5823C 57.8042 13.2419 58.0737 12.8376 58.2575 12.3927C 58.4412 11.9478 58.5356 11.4709 58.5351 10.9895L 58.5351 7.32746C 58.5378 5.38493 59.3095 3.52275 60.6808 2.14917C 62.0522 0.775599 63.9114 0.00272573 65.8507 -6.29019e-07L 80.4854 -6.29019e-07L 80.4854 36.6407L 7.31561 36.6407Z"/>
<path id="path11_fill" d="M -6.28002e-07 4.19346e-06L -6.28002e-07 4.39716C 0.00272132 6.33969 0.774345 8.20187 2.1457 9.57544C 3.51705 10.949 5.37622 11.7219 7.31561 11.7246L 80.4819 11.7246L 80.4819 4.39716L 7.31561 4.39716C 3.28225 4.39716 -6.28002e-07 2.42531 -6.28002e-07 4.19346e-06Z"/>
<path id="path12_fill" d="M 64.7258 -6.29019e-07C 62.7858 0.00181686 60.9258 0.77429 59.5537 2.14796C 58.1816 3.52164 57.4095 5.38434 57.4067 7.32746L 57.4067 10.9929C 57.4072 11.4744 57.3129 11.9512 57.1291 12.3961C 56.9454 12.8411 56.6758 13.2453 56.3359 13.5858C 55.996 13.9262 55.5924 14.1962 55.1482 14.3803C 54.704 14.5643 54.2279 14.6588 53.7472 14.6583L 6.19066 14.6583C 4.9293 14.6738 3.69402 15.0201 2.60785 15.6626C 1.52168 16.3051 0.622538 17.2215 -1.04667e-06 18.3204C 1.27586 17.0321 3.5189 16.1218 6.19066 16.1218L 53.7507 16.1218C 55.7742 16.1218 57.4102 15.1393 57.4102 13.9232L 57.4102 11.7246C 57.4102 9.2993 60.6924 7.32746 64.7258 7.32746L 79.3604 7.32746L 79.3604 -6.29019e-07L 64.7258 -6.29019e-07Z"/>
<path id="path13_fill" d="M 7.31561 43.9716C 7.31288 45.9141 6.54127 47.7763 5.16991 49.1499C 3.79856 50.5235 1.93939 51.2963 4.60535e-06 51.2991L 4.60535e-06 6.29019e-07C 1.93998 0.00272888 3.79967 0.776075 5.17112 2.15039C 6.54257 3.52471 7.31379 5.38777 7.31561 7.33089L 7.31561 43.9716Z"/>
<path id="path14_fill" d="M 4.60535e-06 6.29019e-07L 4.60535e-06 7.32746C 4.03336 7.32746 7.31561 9.67719 7.31561 12.5628L 7.31561 7.33089C 7.31379 5.38777 6.54257 3.52471 5.17112 2.15039C 3.79967 0.776075 1.93998 0.00272888 4.60535e-06 6.29019e-07Z"/>
<path id="path15_fill" d="M 4.60535e-06 5.23537L 4.60535e-06 12.5628C 1.93939 12.5601 3.79856 11.7872 5.16991 10.4136C 6.54127 9.04007 7.31288 7.17789 7.31561 5.23537L 7.31561 -1.25804e-06C 7.31561 2.88564 4.03336 5.23537 4.60535e-06 5.23537Z"/>
<path id="path16_fill" d="M 7.31904 13.7927L -4.60534e-06 17.4547L -4.60534e-06 -1.25804e-06L 7.31904 3.66545L 7.31904 13.7927Z"/>
<path id="path17_fill" d="M 27.0983 0.0480986L 0.476732 0.0480986C 0.312105 0.0480986 0.161197 0.00687014 2.09334e-07 -4.19346e-07L 17.2618 17.2898L 27.0983 0.0480986Z"/>
<path id="path18_fill" d="M 3.1622 21.0995L 2.51201e-06 10.3127L 35.1067 -5.24182e-08L 41.2836 21.0995L 3.1622 21.0995Z"/>
</defs>
</svg>
